<svg width="119" height="24" viewBox="0 0 119 24" fill="none" xmlns="http://www.w3.org/2000/svg">
<path d="M14.936 0.855999C15.0213 0.685332 15.1707 0.599998 15.384 0.599998H19.896C20.0027 0.599998 20.088 0.642665 20.152 0.727999C20.2373 0.791999 20.28 0.877333 20.28 0.983999V22.616C20.28 22.7227 20.2373 22.8187 20.152 22.904C20.088 22.968 20.0027 23 19.896 23H15.352C15.2453 23 15.1493 22.968 15.064 22.904C15 22.8187 14.968 22.7227 14.968 22.616V9.752C14.968 9.66667 14.9467 9.624 14.904 9.624C14.8613 9.624 14.8187 9.656 14.776 9.72L12.024 14.136C11.9387 14.3067 11.7893 14.392 11.576 14.392H9.304C9.09067 14.392 8.94133 14.3067 8.856 14.136L6.072 9.688C6.02933 9.624 5.98667 9.592 5.944 9.592C5.90133 9.592 5.88 9.63467 5.88 9.72V22.616C5.88 22.7227 5.83733 22.8187 5.752 22.904C5.688 22.968 5.60267 23 5.496 23H0.952C0.845333 23 0.749333 22.968 0.664 22.904C0.6 22.8187 0.568 22.7227 0.568 22.616V0.983999C0.568 0.877333 0.6 0.791999 0.664 0.727999C0.749333 0.642665 0.845333 0.599998 0.952 0.599998H5.464C5.656 0.599998 5.80533 0.685332 5.912 0.855999L10.36 7.832C10.424 7.96 10.488 7.96 10.552 7.832L14.936 0.855999ZM29.7158 22.936C29.6091 22.936 29.5131 22.904 29.4278 22.84C29.3638 22.7547 29.3318 22.6587 29.3318 22.552V14.968C29.3318 14.8827 29.3211 14.8187 29.2998 14.776L22.7398 1.048C22.6971 0.962665 22.6758 0.898665 22.6758 0.855999C22.6758 0.685332 22.7931 0.599998 23.0278 0.599998H27.9558C28.1691 0.599998 28.3184 0.695999 28.4038 0.887999L31.8918 8.984C31.9558 9.112 32.0198 9.112 32.0838 8.984L35.6038 0.887999C35.6891 0.695999 35.8384 0.599998 36.0518 0.599998H41.0118C41.1611 0.599998 41.2571 0.642665 41.2998 0.727999C41.3638 0.791999 41.3638 0.898666 41.2998 1.048L34.6438 14.776C34.6224 14.8187 34.6118 14.8827 34.6118 14.968V22.552C34.6118 22.6587 34.5691 22.7547 34.4838 22.84C34.4198 22.904 34.3344 22.936 34.2278 22.936H29.7158Z" fill="white"/>
<path d="M44.1083 23C44.0016 23 43.9056 22.968 43.8203 22.904C43.7563 22.8187 43.7243 22.7227 43.7243 22.616V0.983999C43.7243 0.877333 43.7563 0.791999 43.8203 0.727999C43.9056 0.642665 44.0016 0.599998 44.1083 0.599998H48.6523C48.7589 0.599998 48.8443 0.642665 48.9083 0.727999C48.9936 0.791999 49.0363 0.877333 49.0363 0.983999V18.296C49.0363 18.4027 49.0896 18.456 49.1963 18.456H59.4043C59.5109 18.456 59.5963 18.4987 59.6603 18.584C59.7456 18.648 59.7882 18.7333 59.7882 18.84V22.616C59.7882 22.7227 59.7456 22.8187 59.6603 22.904C59.5963 22.968 59.5109 23 59.4043 23H44.1083ZM70.1075 23.352C68.3795 23.352 66.8542 23.0107 65.5315 22.328C64.2302 21.624 63.2168 20.6427 62.4915 19.384C61.7662 18.1253 61.4035 16.664 61.4035 15V8.6C61.4035 6.97867 61.7662 5.54933 62.4915 4.312C63.2168 3.05333 64.2302 2.08267 65.5315 1.4C66.8542 0.696 68.3795 0.344 70.1075 0.344C71.8355 0.344 73.3608 0.696 74.6835 1.4C76.0062 2.08267 77.0302 3.05333 77.7555 4.312C78.4808 5.54933 78.8435 6.97867 78.8435 8.6V15C78.8435 16.664 78.4808 18.1253 77.7555 19.384C77.0302 20.6427 76.0062 21.624 74.6835 22.328C73.3608 23.0107 71.8355 23.352 70.1075 23.352ZM70.1075 18.808C71.1315 18.808 71.9528 18.4773 72.5715 17.816C73.2115 17.1547 73.5315 16.2693 73.5315 15.16V8.536C73.5315 7.448 73.2115 6.57333 72.5715 5.912C71.9528 5.22933 71.1315 4.888 70.1075 4.888C69.1048 4.888 68.2835 5.22933 67.6435 5.912C67.0248 6.57333 66.7155 7.448 66.7155 8.536V15.16C66.7155 16.2693 67.0248 17.1547 67.6435 17.816C68.2835 18.4773 69.1048 18.808 70.1075 18.808ZM89.8545 23.256C88.1478 23.256 86.6438 22.9147 85.3425 22.232C84.0625 21.5493 83.0598 20.5893 82.3345 19.352C81.6305 18.1147 81.2785 16.6853 81.2785 15.064V8.504C81.2785 6.88267 81.6305 5.464 82.3345 4.248C83.0598 3.01067 84.0625 2.05066 85.3425 1.368C86.6438 0.685333 88.1478 0.344 89.8545 0.344C91.5398 0.344 93.0332 0.674666 94.3345 1.336C95.6358 1.976 96.6385 2.86133 97.3425 3.992C98.0678 5.12267 98.4305 6.37067 98.4305 7.736V7.896C98.4305 8.00267 98.3878 8.09867 98.3025 8.184C98.2385 8.248 98.1532 8.28 98.0465 8.28H93.5025C93.3958 8.28 93.2998 8.248 93.2145 8.184C93.1505 8.09867 93.1185 8.00267 93.1185 7.896C93.1185 7.064 92.8198 6.36 92.2225 5.784C91.6465 5.18667 90.8572 4.888 89.8545 4.888C88.8732 4.888 88.0838 5.208 87.4865 5.848C86.8892 6.488 86.5905 7.32 86.5905 8.344V15.224C86.5905 16.248 86.9212 17.08 87.5825 17.72C88.2438 18.36 89.0758 18.68 90.0785 18.68C91.0172 18.68 91.7745 18.4347 92.3505 17.944C92.9265 17.432 93.2145 16.728 93.2145 15.832V14.936C93.2145 14.8293 93.1612 14.776 93.0545 14.776H89.8545C89.7478 14.776 89.6518 14.744 89.5665 14.68C89.5025 14.5947 89.4705 14.4987 89.4705 14.392V10.872C89.4705 10.7653 89.5025 10.68 89.5665 10.616C89.6518 10.5307 89.7478 10.488 89.8545 10.488H98.0465C98.1532 10.488 98.2385 10.5307 98.3025 10.616C98.3878 10.68 98.4305 10.7653 98.4305 10.872V15.224C98.4305 16.824 98.0678 18.232 97.3425 19.448C96.6385 20.664 95.6358 21.6027 94.3345 22.264C93.0545 22.9253 91.5612 23.256 89.8545 23.256ZM109.576 23.352C107.848 23.352 106.323 23.0107 105 22.328C103.699 21.624 102.686 20.6427 101.96 19.384C101.235 18.1253 100.872 16.664 100.872 15V8.6C100.872 6.97867 101.235 5.54933 101.96 4.312C102.686 3.05333 103.699 2.08267 105 1.4C106.323 0.696 107.848 0.344 109.576 0.344C111.304 0.344 112.83 0.696 114.152 1.4C115.475 2.08267 116.499 3.05333 117.224 4.312C117.95 5.54933 118.312 6.97867 118.312 8.6V15C118.312 16.664 117.95 18.1253 117.224 19.384C116.499 20.6427 115.475 21.624 114.152 22.328C112.83 23.0107 111.304 23.352 109.576 23.352ZM109.576 18.808C110.6 18.808 111.422 18.4773 112.04 17.816C112.68 17.1547 113 16.2693 113 15.16V8.536C113 7.448 112.68 6.57333 112.04 5.912C111.422 5.22933 110.6 4.888 109.576 4.888C108.574 4.888 107.752 5.22933 107.112 5.912C106.494 6.57333 106.184 7.448 106.184 8.536V15.16C106.184 16.2693 106.494 17.1547 107.112 17.816C107.752 18.4773 108.574 18.808 109.576 18.808Z" fill="#E6606C"/>
</svg>
